<svg width="32" height="32" viewBox="0 0 32 32" fill="none" xmlns="http://www.w3.org/2000/svg">
<path d="M0 5C0 2.23858 2.23858 0 5 0H27C29.7614 0 32 2.23858 32 5V27C32 29.7614 29.7614 32 27 32H5C2.23858 32 0 29.7614 0 27V5Z" fill="#060518"/>
<path d="M9.68781 23.2C8.75448 23.2 7.93448 23.0267 7.22781 22.68C6.53448 22.32 5.99448 21.82 5.60781 21.18C5.23448 20.5267 5.04781 19.76 5.04781 18.88V12.52C5.04781 11.6267 5.23448 10.86 5.60781 10.22C5.99448 9.58 6.53448 9.08667 7.22781 8.74C7.93448 8.38 8.75448 8.2 9.68781 8.2C10.6345 8.2 11.4478 8.38 12.1278 8.74C12.8211 9.08667 13.3611 9.58 13.7478 10.22C14.1345 10.86 14.3278 11.6267 14.3278 12.52H11.8078C11.8078 11.8267 11.6211 11.3 11.2478 10.94C10.8878 10.58 10.3678 10.4 9.68781 10.4C9.00781 10.4 8.48115 10.58 8.10781 10.94C7.73448 11.3 7.54781 11.82 7.54781 12.5V18.88C7.54781 19.56 7.73448 20.0867 8.10781 20.46C8.48115 20.82 9.00781 21 9.68781 21C10.3678 21 10.8878 20.82 11.2478 20.46C11.6211 20.0867 11.8078 19.56 11.8078 18.88H14.3278C14.3278 19.7467 14.1345 20.5067 13.7478 21.16C13.3611 21.8133 12.8211 22.32 12.1278 22.68C11.4478 23.0267 10.6345 23.2 9.68781 23.2Z" fill="white"/>
<path d="M17.92 23V8.4H22.54C23.5133 8.4 24.3533 8.58 25.06 8.94C25.78 9.3 26.34 9.80667 26.74 10.46C27.14 11.1 27.34 11.86 27.34 12.74C27.34 13.7 27.0933 14.5467 26.6 15.28C26.12 16.0133 25.4667 16.5333 24.64 16.84L27.54 23H24.74L22.2 17.2H20.42V23H17.92ZM20.42 15H22.54C23.2467 15 23.8 14.8067 24.2 14.42C24.6 14.0333 24.8 13.5 24.8 12.82C24.8 12.1267 24.6 11.5867 24.2 11.2C23.8 10.8 23.2467 10.6 22.54 10.6H20.42V15Z" fill="white"/>
</svg>
